<svg xmlns="http://www.w3.org/2000/svg" xmlns:xlink="http://www.w3.org/1999/xlink" viewBox="0 0 218.65 214.83"><defs><style>.cls-1{fill:none;}.cls-2,.cls-4{isolation:isolate;}.cls-3{fill:url(#linear-gradient);}.cls-4{fill:#091e42;opacity:0.2;}.cls-5{fill:url(#linear-gradient-2);}.cls-6{fill:#b2d4ff;}.cls-7{fill:url(#linear-gradient-3);}.cls-8{clip-path:url(#clip-path);}.cls-9{fill:#344563;}.cls-10{fill:#ffab00;}.cls-11{fill:#2684ff;}.cls-12{fill:#7a869a;mix-blend-mode:multiply;}.cls-13{fill:url(#linear-gradient-4);}.cls-14{fill:url(#linear-gradient-5);}</style><linearGradient id="linear-gradient" x1="6.05" y1="143.83" x2="175.18" y2="143.83" gradientUnits="userSpaceOnUse"><stop offset="0.38" stop-color="#0052cc"/><stop offset="0.7" stop-color="#0154ce"/><stop offset="0.81" stop-color="#065ad5"/><stop offset="0.9" stop-color="#0f66e0"/><stop offset="0.96" stop-color="#1c76f1"/><stop offset="1" stop-color="#2684ff"/></linearGradient><linearGradient id="linear-gradient-2" x1="104.16" y1="209.58" x2="104.16" gradientUnits="userSpaceOnUse"><stop offset="0" stop-color="#0065ff" stop-opacity="0.5"/><stop offset="0.35" stop-color="#0065ff" stop-opacity="0.5"/><stop offset="0.4" stop-color="#0065ff" stop-opacity="0.5"/><stop offset="0.71" stop-color="#0065ff" stop-opacity="0.23"/><stop offset="1" stop-color="#0065ff" stop-opacity="0"/></linearGradient><linearGradient id="linear-gradient-3" x1="32.35" y1="-1784.82" x2="160.93" y2="-1656.23" gradientTransform="matrix(1, 0, 0, -1, 0, -1622.71)" gradientUnits="userSpaceOnUse"><stop offset="0.05" stop-color="#fafbfc"/><stop offset="1" stop-color="#c1c7d0"/></linearGradient><clipPath id="clip-path"><polygon class="cls-1" points="136.84 9.44 41.07 9.44 41.07 170.84 167.59 170.84 167.59 40.18 136.84 9.44"/></clipPath><linearGradient id="linear-gradient-4" x1="3408.35" y1="3364.31" x2="3423.72" y2="3379.68" gradientTransform="matrix(-1, 0, 0, 1, 3560.56, -3339.5)" gradientUnits="userSpaceOnUse"><stop offset="0" stop-color="#dfe1e5"/><stop offset="0.12" stop-color="#e4e6e9"/><stop offset="0.82" stop-color="#fff"/></linearGradient><linearGradient id="linear-gradient-5" x1="112.35" y1="214.82" x2="112.35" y2="111.79" gradientUnits="userSpaceOnUse"><stop offset="0" stop-color="#0052cc"/><stop offset="0.25" stop-color="#0e5fd5"/><stop offset="0.71" stop-color="#3282ee"/><stop offset="1" stop-color="#4c9aff"/></linearGradient></defs><title>Asset 5</title><g class="cls-2"><g id="Layer_2" data-name="Layer 2"><g id="Layer_2-2" data-name="Layer 2"><path id="_Path_" data-name="&lt;Path&gt;" class="cls-3" d="M168.84,87.91h-92c-18.16,0-13.07-15.07-31-15.07H12.39a6.34,6.34,0,0,0-6.34,6.33V214.83H175.18V94.24A6.34,6.34,0,0,0,168.84,87.91Z"/><path class="cls-4" d="M6.05,214.82H126l-71.55-103A67.49,67.49,0,0,0,18.16,125,62.08,62.08,0,0,0,6.05,137Z"/><polygon class="cls-5" points="176.25 209.58 32.07 209.58 0 0 208.32 0 176.25 209.58"/><rect class="cls-6" x="29.84" y="26.99" width="122.38" height="148.05"/><polygon id="_Clipping_Path_2" data-name=" Clipping Path 2" class="cls-7" points="136.84 9.44 41.07 9.44 41.07 170.84 167.59 170.84 167.59 40.18 136.84 9.44"/><g class="cls-8"><rect class="cls-9" x="59.6" y="32" width="47.32" height="47.32"/><path class="cls-10" d="M81.68,57.59H96.57A14.89,14.89,0,1,1,81.68,42.7Z"/><path class="cls-11" d="M84.84,53.72V38.83A14.89,14.89,0,0,1,99.73,53.72Z"/><rect class="cls-12" x="59.6" y="85.01" width="95.89" height="3"/><rect class="cls-12" x="59.6" y="93.91" width="91.14" height="3"/><rect class="cls-12" x="59.6" y="102.81" width="94.64" height="3"/><rect class="cls-12" x="112.35" y="32" width="44.5" height="3"/><rect class="cls-12" x="112.35" y="40.93" width="37.93" height="3"/><rect class="cls-12" x="112.35" y="49.85" width="43.92" height="3"/><rect class="cls-12" x="112.35" y="58.78" width="32.93" height="3"/></g><polygon class="cls-13" points="136.84 40.18 167.59 40.18 136.84 9.44 136.84 40.18"/><path id="_Path_2" data-name="&lt;Path&gt;" class="cls-14" d="M175.17,214.82H6.05L50.78,114.48a4.53,4.53,0,0,1,4.14-2.69h159.2a4.54,4.54,0,0,1,4.14,6.38Z"/><polygon class="cls-4" points="44.28 129.06 43.51 130.79 212.63 130.79 213.4 129.06 44.28 129.06"/><polygon class="cls-4" points="207.55 142.19 208.32 140.46 39.2 140.46 38.43 142.19 207.55 142.19"/></g></g></g></svg>