<svg xmlns="http://www.w3.org/2000/svg" xmlns:xlink="http://www.w3.org/1999/xlink" viewBox="0 0 296.31 224.79"><defs><style>.cls-1{isolation:isolate;}.cls-2{fill:url(#linear-gradient);}.cls-3{fill:url(#linear-gradient-2);}.cls-4{fill:none;}.cls-5,.cls-7{fill:#dfe1e5;stroke:#dfe1e5;stroke-linecap:round;stroke-linejoin:round;}.cls-5{stroke-width:3px;}.cls-6{fill:#344563;}.cls-7{stroke-width:1.76px;}.cls-8{fill:#fff;}.cls-9{fill:#2684ff;}.cls-10{fill:#ffab00;}.cls-11{fill:url(#linear-gradient-3);}.cls-12{fill:#7a869a;mix-blend-mode:multiply;}.cls-13{fill:#fdc150;}.cls-14{fill:#fffae5;}.cls-15{fill:#253858;}.cls-16{fill:#ff8b00;}.cls-17{fill:#ffc400;}.cls-18{fill:#0052cc;}.cls-19{fill:#0065ff;}</style><linearGradient id="linear-gradient" x1="237.43" y1="-1682.95" x2="174.1" y2="-1573.25" gradientTransform="matrix(1, 0, 0, -1, 0, -1609.87)" gradientUnits="userSpaceOnUse"><stop offset="0" stop-color="#dfe1e5"/><stop offset="0.19" stop-color="#d6d9df"/><stop offset="0.64" stop-color="#c7ccd4"/><stop offset="1" stop-color="#c1c7d0"/></linearGradient><linearGradient id="linear-gradient-2" x1="148.16" y1="224.79" x2="148.16" gradientUnits="userSpaceOnUse"><stop offset="0.2" stop-color="#c1c7d0"/><stop offset="0.48" stop-color="#d0d4db"/><stop offset="0.84" stop-color="#ebecf0"/></linearGradient><linearGradient id="linear-gradient-3" x1="-3986.66" y1="2671.74" x2="-3986.66" y2="2632.65" gradientTransform="matrix(-1, 0, 0, 1, -3893.83, -2446.95)" gradientUnits="userSpaceOnUse"><stop offset="0" stop-color="#c1c7d0"/><stop offset="0.23" stop-color="#d2d6dd"/><stop offset="0.73" stop-color="#f3f4f6"/><stop offset="1" stop-color="#fff"/></linearGradient></defs><title>Asset 7</title><g class="cls-1"><g id="Layer_2" data-name="Layer 2"><g id="Layer_2-2" data-name="Layer 2"><path class="cls-2" d="M110.67,0H257.22a39.09,39.09,0,0,1,39.09,39.09H149.76A39.09,39.09,0,0,0,110.67,0Z"/><path id="_Clipping_Path_2" data-name=" Clipping Path 2" class="cls-3" d="M260.49,0H114a39.1,39.1,0,0,0-39.1,39.09h0V185.7h.05a39.07,39.07,0,0,1-39.08,39.09H182.37a39.09,39.09,0,0,0,39.09-39.09h0V39.09h-.05A39.09,39.09,0,0,1,260.49,0Z"/><line class="cls-4" x1="182.23" y1="224.68" x2="35.92" y2="224.68"/><rect class="cls-5" x="42.27" y="28.23" width="63.13" height="63.13"/><rect class="cls-6" x="48.12" y="34.08" width="51.43" height="51.43"/><rect class="cls-7" x="134.7" y="131.75" width="63.13" height="63.13"/><rect class="cls-6" x="140.55" y="137.6" width="51.43" height="51.43"/><polygon class="cls-8" points="72.59 71.25 92.53 71.25 82.56 61.28 72.59 71.25"/><polygon class="cls-9" points="53.86 71.25 83.96 71.25 68.91 56.2 53.86 71.25"/><circle class="cls-10" cx="82.56" cy="49.9" r="4.12"/><circle class="cls-10" cx="175.72" cy="157.04" r="5.17"/><rect class="cls-8" x="158.97" y="167.99" width="10.14" height="10.14" transform="translate(-36.44 43.97) rotate(-13.76)"/><polygon class="cls-9" points="149.28 157.69 161.53 161.6 158.59 149.68 149.28 157.69"/><path class="cls-11" d="M185.64,224.79H39.09A39.09,39.09,0,0,1,0,185.7H146.56A39.07,39.07,0,0,0,185.64,224.79Z"/><rect class="cls-12" x="107.09" y="90.9" width="87.32" height="3"/><rect class="cls-12" x="107.09" y="78.84" width="80.65" height="3"/><rect class="cls-12" x="107.09" y="102.97" width="80.65" height="3"/><rect class="cls-12" x="107.09" y="115.03" width="37.44" height="3"/><rect class="cls-12" x="39.05" y="150.23" width="86.76" height="3"/><rect class="cls-12" x="39.05" y="138.17" width="83.52" height="3"/><rect class="cls-12" x="39.05" y="162.29" width="80.09" height="3"/><rect class="cls-12" x="39.05" y="174.36" width="55.76" height="3"/><polygon class="cls-13" points="28.67 119.88 28.67 119.88 69.69 161.17 69.69 161.17 28.67 119.88"/><polygon class="cls-13" points="26.69 117.89 28.03 119.24 26.69 117.89 26.69 117.89"/><polygon class="cls-13" points="74.68 156.2 33.66 114.91 33.65 114.92 74.67 156.21 74.68 156.2"/><polygon class="cls-14" points="86.6 155.88 79.99 162.46 79.98 162.45 79.97 162.46 79.97 162.47 73.37 169.04 84.33 173.17 90.66 166.83 86.6 155.88"/><polygon class="cls-15" points="90.66 166.83 84.33 173.17 94.42 176.97 90.66 166.83"/><path class="cls-16" d="M27.67,96.57l-2.91-2.93a9,9,0,0,0-12.66,0l-.54.53a8.94,8.94,0,0,0,0,12.66l.42.42h0l4.37,4.4,1.79,1.79.84.85h0l6.6-6.57h0l6.62-6.59-2.62-2.63-1.89-1.9Z"/><polygon class="cls-17" points="32.18 101.1 25.56 107.69 79.98 162.45 79.99 162.46 86.6 155.88 86.6 155.88 29.56 98.47 29.56 98.47 32.18 101.1"/><polygon class="cls-10" points="79.97 162.46 25.55 107.7 18.95 114.27 73.37 169.04 73.37 169.04 73.37 169.04 73.37 169.04 79.97 162.47 79.97 162.46"/><polygon class="cls-13" points="159.96 101.84 159.96 101.84 200.98 60.55 200.98 60.55 159.96 101.84"/><polygon class="cls-13" points="202.97 58.56 201.62 59.91 202.97 58.56 202.97 58.56"/><polygon class="cls-13" points="154.98 96.88 196.01 55.59 196 55.59 154.97 96.87 154.98 96.88"/><polygon class="cls-14" points="146.09 107.5 152.42 113.84 163.37 109.71 156.77 103.14 156.78 103.13 156.77 103.12 156.75 103.14 150.15 96.55 146.09 107.5"/><polygon class="cls-15" points="142.32 117.64 152.42 113.84 146.09 107.5 142.32 117.64"/><path class="cls-18" d="M209.08,37.24l-1.89,1.9-2.62,2.63,6.61,6.59h0l6.6,6.58h0l.85-.85,1.78-1.8,4.38-4.4h0l.41-.42a9,9,0,0,0,0-12.66l-.54-.53a9,9,0,0,0-12.66,0l-2.91,2.93Z"/><polygon class="cls-9" points="207.19 39.14 207.19 39.14 150.14 96.55 150.15 96.55 156.75 103.14 156.77 103.12 211.18 48.36 204.57 41.77 207.19 39.14"/><polygon class="cls-19" points="156.77 103.14 163.37 109.71 163.37 109.71 163.38 109.71 163.38 109.71 217.79 54.95 211.19 48.37 156.78 103.13 156.77 103.14"/></g></g></g></svg>